# Blender v3.1.2 OBJ File: 'surgical_room.blend'
# www.blender.org
mtllib Plane_002.mtl
o Plane_002_Plane.005
v -249.999985 249.999985 0.000000
v 249.999985 249.999985 0.000000
v -249.999985 249.999969 499.999969
v 249.999985 249.999969 499.999969
v -250.000015 -249.999985 -0.000004
v -250.000015 249.999969 -0.000004
v -249.999985 -249.999985 499.999969
v -250.000015 249.999969 499.999969
v -0.487004 -0.437812 -0.500000
v -0.487004 -0.437812 0.500000
v -0.487004 0.437812 -0.500000
v -0.487004 0.437812 0.500000
v 0.487004 -0.437812 -0.500000
v 0.487004 -0.437812 0.500000
v 0.487004 0.437812 -0.500000
v 0.487004 0.437812 0.500000
v -249.999985 -249.999985 0.000000
v 249.999985 -249.999985 0.000000
v -249.999985 249.999985 0.000000
v 249.999985 249.999985 0.000000
v -0.487004 250.499985 250.437775
v -0.487004 250.499985 249.562164
v -0.487004 249.499985 250.437775
v -0.487004 249.499985 249.562164
v 0.487004 250.499985 250.437775
v 0.487004 250.499985 249.562164
v 0.487004 249.499985 250.437775
v 0.487004 249.499985 249.562164
vt 0.000000 0.000000
vt 1.000000 0.000000
vt 1.000000 1.000000
vt 0.000000 1.000000
vt 0.000000 0.000000
vt 1.000000 0.000000
vt 1.000000 1.000000
vt 0.000000 1.000000
vt 0.375000 0.000000
vt 0.625000 0.000000
vt 0.625000 0.250000
vt 0.375000 0.250000
vt 0.625000 0.500000
vt 0.375000 0.500000
vt 0.625000 0.750000
vt 0.375000 0.750000
vt 0.625000 1.000000
vt 0.375000 1.000000
vt 0.125000 0.500000
vt 0.125000 0.750000
vt 0.875000 0.500000
vt 0.875000 0.750000
vt 0.000000 0.000000
vt 1.000000 0.000000
vt 1.000000 1.000000
vt 0.000000 1.000000
vt 0.375000 0.000000
vt 0.625000 0.000000
vt 0.625000 0.250000
vt 0.375000 0.250000
vt 0.625000 0.500000
vt 0.375000 0.500000
vt 0.625000 0.750000
vt 0.375000 0.750000
vt 0.625000 1.000000
vt 0.375000 1.000000
vt 0.125000 0.500000
vt 0.125000 0.750000
vt 0.875000 0.500000
vt 0.875000 0.750000
vn 0.0000 -1.0000 -0.0000
vn 1.0000 0.0000 -0.0000
vn -1.0000 0.0000 0.0000
vn 0.0000 1.0000 0.0000
vn 0.0000 0.0000 -1.0000
vn 0.0000 0.0000 1.0000
usemtl Material.011
s off
f 1/1/1 2/2/1 4/3/1 3/4/1
usemtl Material.007
f 5/5/2 6/6/2 8/7/2 7/8/2
usemtl collision_shape_material.003
f 9/9/3 10/10/3 12/11/3 11/12/3
f 11/12/4 12/11/4 16/13/4 15/14/4
f 15/14/2 16/13/2 14/15/2 13/16/2
f 13/16/1 14/15/1 10/17/1 9/18/1
f 11/19/5 15/14/5 13/16/5 9/20/5
f 16/13/6 12/21/6 10/22/6 14/15/6
usemtl Material.010
f 17/23/6 18/24/6 20/25/6 19/26/6
usemtl collision_shape_material.004
f 21/27/3 22/28/3 24/29/3 23/30/3
f 23/30/1 24/29/1 28/31/1 27/32/1
f 27/32/2 28/31/2 26/33/2 25/34/2
f 25/34/4 26/33/4 22/35/4 21/36/4
f 23/37/6 27/32/6 25/34/6 21/38/6
f 28/31/5 24/39/5 22/40/5 26/33/5
